<svg width="24" height="23" viewBox="0 0 24 23" fill="none" xmlns="http://www.w3.org/2000/svg">
<path d="M0.902512 12.3302H19.6854" stroke="#292D32" stroke-width="1.65731" stroke-miterlimit="10" stroke-linecap="round" stroke-linejoin="round"/>
<path d="M19.6854 9.75574V17.6556C19.6522 20.8045 18.7904 21.6 15.509 21.6H5.07897C1.74225 21.6 0.902512 20.7715 0.902512 17.4789V9.75574C0.902512 6.77263 1.59858 5.81139 4.21714 5.65671C4.48231 5.64566 4.76961 5.63461 5.07897 5.63461H15.509C18.8457 5.63461 19.6854 6.46327 19.6854 9.75574Z" stroke="#292D32" stroke-width="1.65731" stroke-linecap="round" stroke-linejoin="round"/>
<path d="M23 5.83343V13.5565C23 16.5397 22.3039 17.5009 19.6854 17.6556V9.75574C19.6854 6.46321 18.8457 5.63456 15.509 5.63456H5.07897C4.7696 5.63456 4.4823 5.6456 4.21713 5.65665C4.25028 2.50776 5.11211 1.71225 8.39359 1.71225H18.8236C22.1603 1.71225 23 2.54091 23 5.83343Z" stroke="#292D32" stroke-width="1.65731" stroke-linecap="round" stroke-linejoin="round"/>
<path d="M4.49335 18.0756H6.3937" stroke="#292D32" stroke-width="1.65731" stroke-miterlimit="10" stroke-linecap="round" stroke-linejoin="round"/>
<path d="M8.75801 18.0756H12.5588" stroke="#292D32" stroke-width="1.65731" stroke-miterlimit="10" stroke-linecap="round" stroke-linejoin="round"/>
</svg>
