<svg width="14" height="16" viewBox="0 0 14 16" fill="none" xmlns="http://www.w3.org/2000/svg">
<path d="M6.59869 14.5796C2.96136 14.5796 0 11.5201 0 7.76218C0 4.00428 2.96136 0.944748 6.59869 0.944748C10.236 0.944748 13.1974 4.00428 13.1974 7.76218C13.1974 11.5201 10.236 14.5796 6.59869 14.5796ZM6.59869 1.94242C3.48926 1.94242 0.965662 4.55633 0.965662 7.76218C0.965662 10.968 3.48926 13.5819 6.59869 13.5819C9.70813 13.5819 12.2317 10.968 12.2317 7.76218C12.2317 4.55633 9.70813 1.94242 6.59869 1.94242Z" fill="#292D32"/>
<path d="M13.3586 15.2447C13.2363 15.2447 13.114 15.1981 13.0174 15.0984L11.7298 13.7681C11.5431 13.5752 11.5431 13.256 11.7298 13.0631C11.9165 12.8702 12.2255 12.8702 12.4122 13.0631L13.6998 14.3933C13.8865 14.5862 13.8865 14.9055 13.6998 15.0984C13.6032 15.1981 13.4809 15.2447 13.3586 15.2447Z" fill="#292D32"/>
</svg>
