<svg width="29" height="31" viewBox="0 0 29 31" fill="none" xmlns="http://www.w3.org/2000/svg">
<path d="M2 1.65746H4.28261C5.6994 1.65746 6.81445 2.91791 6.69639 4.36811L5.60756 17.8672C5.4239 20.0763 7.11616 21.9738 9.26758 21.9738H23.2387C25.1277 21.9738 26.7807 20.3745 26.925 18.4364L27.6334 8.27145C27.7908 6.02161 26.1379 4.19192 23.9471 4.19192H7.01124" stroke="black" stroke-width="2.53224" stroke-miterlimit="10" stroke-linecap="round" stroke-linejoin="round"/>
<path d="M20.6937 28.764C21.5994 28.764 22.3335 28.0055 22.3335 27.0698C22.3335 26.1341 21.5994 25.3757 20.6937 25.3757C19.788 25.3757 19.0539 26.1341 19.0539 27.0698C19.0539 28.0055 19.788 28.764 20.6937 28.764Z" stroke="black" stroke-width="2.53224" stroke-miterlimit="10" stroke-linecap="round" stroke-linejoin="round"/>
<path d="M10.199 28.764C11.1046 28.764 11.8388 28.0055 11.8388 27.0698C11.8388 26.1341 11.1046 25.3757 10.199 25.3757C9.29336 25.3757 8.5592 26.1341 8.5592 27.0698C8.5592 28.0055 9.29336 28.764 10.199 28.764Z" stroke="black" stroke-width="2.53224" stroke-miterlimit="10" stroke-linecap="round" stroke-linejoin="round"/>
<path d="M11.1829 9.78943H26.925" stroke="black" stroke-width="2.53224" stroke-miterlimit="10" stroke-linecap="round" stroke-linejoin="round"/>
</svg>

