<svg width="22" height="22" viewBox="0 0 22 22" fill="none" xmlns="http://www.w3.org/2000/svg">
<path d="M8.62531 9.17942C8.62531 9.74399 8.78213 9.82763 9.1376 9.95308L9.6708 10.1413V8.36394H9.35715C8.95986 8.36394 8.62531 8.72986 8.62531 9.17942Z" fill="#22C01F"/>
<path d="M11.239 14.115H11.5527C11.9604 14.115 12.2845 13.749 12.2845 13.2995C12.2845 12.7349 12.1277 12.6513 11.7722 12.5258L11.239 12.3376V14.115Z" fill="#22C01F"/>
<path d="M18.3797 4.42243L16.2365 6.56569C16.0797 6.72251 15.881 6.79569 15.6824 6.79569C15.4837 6.79569 15.2851 6.72251 15.1283 6.56569C14.8251 6.26249 14.8251 5.76066 15.1283 5.45746L17.2715 3.31421C15.4315 1.74597 13.0582 0.784119 10.4549 0.784119C4.6838 0.784119 0 5.46792 0 11.239C0 17.0101 4.6838 21.6939 10.4549 21.6939C16.226 21.6939 20.9098 17.0101 20.9098 11.239C20.9098 8.63576 19.948 6.26249 18.3797 4.42243ZM12.2845 11.0508C12.9536 11.2913 13.8528 11.7722 13.8528 13.3091C13.8528 14.616 12.8177 15.6928 11.5527 15.6928H11.239V15.9542C11.239 16.3828 10.8836 16.7383 10.4549 16.7383C10.0263 16.7383 9.67079 16.3828 9.67079 15.9542V15.6928H9.58715C8.19665 15.6928 7.05707 14.5219 7.05707 13.0791C7.05707 12.64 7.41253 12.2845 7.84118 12.2845C8.26984 12.2845 8.6253 12.64 8.6253 13.0686C8.6253 13.6437 9.05395 14.1141 9.58715 14.1141H9.67079V11.7931L8.6253 11.4272C7.95619 11.1868 7.05707 10.7058 7.05707 9.16896C7.05707 7.86209 8.0921 6.78524 9.35715 6.78524H9.67079V6.53432C9.67079 6.10567 10.0263 5.7502 10.4549 5.7502C10.8836 5.7502 11.239 6.10567 11.239 6.53432V6.79569H11.3227C12.7132 6.79569 13.8528 7.96664 13.8528 9.40942C13.8528 9.83807 13.4973 10.1935 13.0686 10.1935C12.64 10.1935 12.2845 9.83807 12.2845 9.40942C12.2845 8.8344 11.8559 8.36393 11.3227 8.36393H11.239V10.6849L12.2845 11.0508Z" fill="#22C01F"/>
<path d="M21.6312 0.480926C21.5476 0.292738 21.4012 0.135914 21.2026 0.0522745C21.1085 0.0209098 21.0144 0 20.9098 0H16.7279C16.2992 0 15.9437 0.355467 15.9437 0.784119C15.9437 1.21277 16.2992 1.56824 16.7279 1.56824H19.0175L17.2715 3.31421C17.6688 3.65922 18.0347 4.02514 18.3797 4.42243L20.1257 2.67646V4.96608C20.1257 5.39474 20.4812 5.7502 20.9098 5.7502C21.3385 5.7502 21.6939 5.39474 21.6939 4.96608V0.784119C21.6939 0.679569 21.673 0.585475 21.6312 0.480926Z" fill="#22C01F"/>
</svg>
