<svg width="502" height="181" viewBox="0 0 502 181" fill="none" xmlns="http://www.w3.org/2000/svg">
<rect width="501.928" height="180.713" rx="18" fill="black"/>
<path d="M265.047 44.7778C261.712 46.0898 258.651 49.3984 257.831 52.5358C257.503 53.7338 257.23 57.4417 257.23 60.8073V66.9681H254.497C252.529 66.9681 251.654 67.1963 251.381 67.8238C250.944 69.1358 251.381 69.364 254.552 69.7062L257.339 69.9914L257.121 87.4471C257.011 97.0305 256.683 105.302 256.465 105.872C256.246 106.386 255.426 107.07 254.606 107.356C253.786 107.698 252.638 108.097 252.037 108.325C250.998 108.725 251.053 108.782 252.31 109.181C254.005 109.751 268.928 109.751 271.169 109.238L272.809 108.839L271.333 108.439C270.568 108.211 269.147 107.356 268.217 106.557L266.523 105.074V87.5041V69.9344L273.629 69.7062C280.516 69.478 282.43 68.9646 281.61 67.5956C281.336 67.1963 278.549 66.9681 273.793 66.9681H266.359L266.687 58.4114C267.069 49.2272 267.616 47.1166 269.912 46.0328C271.825 45.12 274.722 46.318 276.198 48.6568C277.893 51.2808 277.783 53.0492 275.815 54.9887C273.738 57.0423 273.738 58.1262 275.979 59.5523C281.282 62.975 287.787 58.3544 286.475 52.0795C285.108 45.6334 273.137 41.5262 265.047 44.7778Z" fill="white"/>
<path d="M85.4791 46.5461C87.0097 47.3447 87.8843 48.2004 88.1576 49.2272C88.3763 50.0258 88.5402 62.6327 88.5402 77.2361C88.5949 108.04 88.7589 107.127 83.6752 108.382C80.0675 109.238 86.955 109.808 98.7075 109.58C109.531 109.352 110.843 109.181 115.38 107.812C121.283 105.929 124.344 104.161 127.843 100.51C131.396 96.8023 132.817 93.3797 132.817 88.645C132.817 79.5749 126.148 72.7295 114.833 70.1055C110.679 69.1357 108.984 68.1089 111.553 68.1089C112.319 68.1089 114.45 67.4815 116.309 66.6828C123.852 63.4883 126.312 59.4952 124.126 53.9619C122.869 50.9385 121.338 49.3983 117.184 47.2307L113.467 45.2911H98.3249L83.1286 45.3482L85.4791 46.5461ZM108.11 47.687C111.772 48.942 114.013 52.5928 114.013 57.2705C114.013 63.5454 109.695 67.5385 102.971 67.5385H99.8008V56.9282V46.2609L103.081 46.6602C104.884 46.8884 107.126 47.3447 108.11 47.687ZM105.267 70.1055C111.991 71.0182 117.184 74.7261 119.479 80.2024C121.174 84.3096 121.557 90.2993 120.299 94.6346C118.004 102.906 113.467 106.215 102.425 107.755L99.8008 108.097V88.702V69.2498L101.331 69.5351C102.151 69.6491 103.901 69.9344 105.267 70.1055Z" fill="white"/>
<path d="M354.366 51.3949C354.147 51.5661 353.983 52.4788 353.983 53.3915C353.983 55.3881 351.305 61.0925 349.501 62.8038C348.298 64.0018 346.658 64.8574 341.137 67.2533C339.06 68.109 339.006 68.2231 339.989 69.0217C340.7 69.5351 342.395 69.8203 344.745 69.8203H348.408L348.681 85.0512C348.845 94.2924 349.173 101.195 349.555 102.45C350.43 105.416 354.475 108.953 358.302 110.094C364.916 112.147 374.591 109.238 372.022 106.044C371.366 105.245 371.147 105.302 369.999 106.443C368.906 107.47 368.032 107.755 365.626 107.755C362.784 107.755 362.511 107.641 360.761 105.53C358.52 102.849 358.466 102.507 358.138 84.5378L357.864 70.4478L359.285 69.7062C361.253 68.7365 361.472 67.6526 359.832 67.2533C358.684 66.9111 358.466 66.4547 358.138 63.9447C357.974 62.2904 357.81 58.7537 357.81 55.9585V50.9956H356.279C355.404 50.9956 354.53 51.1668 354.366 51.3949Z" fill="white"/>
<path d="M377.598 51.6801C377.324 52.0795 376.887 53.3344 376.668 54.4183C376.067 57.3846 374.427 60.408 372.241 62.6327C370.546 64.344 368.524 65.4279 363.44 67.2533C362.456 67.5956 362.565 69.0787 363.604 69.478C364.096 69.6492 366.009 69.8203 367.922 69.8203H371.366L371.585 85.6216C371.749 99.2553 371.858 101.708 372.678 103.248C375.903 109.409 385.633 112.718 391.974 109.809C395.309 108.268 396.456 107.242 397.768 104.503C399.244 101.537 399.135 100.054 397.495 100.054C396.402 100.054 395.91 100.624 394.817 103.134C393.286 106.614 391.318 108.04 388.148 108.04C385.524 108.04 382.517 105.188 381.861 102.05C381.588 100.795 381.315 93.0945 381.315 84.8801V69.9914L387.164 69.5921C390.444 69.3639 393.286 68.9646 393.614 68.6224C394.653 67.5385 392.521 66.9681 386.945 66.9681H381.315V58.9818V50.9956H379.73C378.855 50.9956 377.926 51.3379 377.598 51.6801Z" fill="white"/>
<path d="M156.049 66.9111C148.013 70.1626 142.984 79.4609 143.695 89.6148C144.132 96.4031 145.772 100.168 150.036 104.617C154.245 109.01 157.197 110.322 164.084 110.721C174.306 111.406 182.998 105.245 182.178 97.8862C181.795 94.1213 179.007 91.4973 175.509 91.4973C173.541 91.4973 172.721 91.8395 171.081 93.3227L169.113 95.1481L170.48 96.346C172.393 97.9433 173.213 99.9398 172.83 101.879C172.01 106.272 167.473 109.238 163.428 108.097C158.891 106.842 155.229 100.567 154.409 92.6952C154.136 90.0141 153.917 86.8196 153.917 85.6217V83.511H168.129H182.342V82.199C182.342 80.4306 179.937 75.2966 177.859 72.5585C176.93 71.3035 175.236 69.6492 174.088 68.9076C169.441 65.8843 160.914 64.9145 156.049 66.9111ZM165.178 68.6224C167.364 70.0485 168.949 72.7867 170.043 76.9509C170.48 78.8334 170.863 80.5447 170.863 80.7729C170.863 81.0011 167.145 81.2292 162.663 81.2292H154.464L154.792 79.632C155.776 75.0684 156.213 73.7564 157.689 71.5317C159.274 69.0788 161.133 67.5956 162.663 67.5386C163.1 67.5386 164.248 68.052 165.178 68.6224Z" fill="white"/>
<path d="M215.249 66.9681C213.937 67.5956 212.188 68.6224 211.368 69.2499C209.673 70.5049 209.126 70.2767 209.126 68.2801C209.126 66.9681 209.072 66.9681 202.184 66.9681C195.078 66.9681 191.962 67.5956 195.625 68.3372C196.663 68.5083 197.975 69.2499 198.522 69.8774C199.506 71.0183 199.56 72.2162 199.56 87.7323C199.56 106.671 199.451 107.242 195.734 108.325C193.985 108.782 193.766 109.01 194.531 109.352C195.898 109.866 212.406 109.809 213.718 109.238C214.647 108.896 214.429 108.611 212.352 107.413C210.11 106.101 209.946 105.815 209.564 103.191C209.126 99.3694 209.126 88.7021 209.618 80.8299C210.001 74.7832 210.11 74.2698 211.641 72.6155C215.085 68.7365 221.098 67.3674 223.721 69.8774C226.564 72.6155 226.783 74.0987 227.001 89.5007C227.22 105.416 227.165 105.758 223.721 107.812L221.644 109.01L223.393 109.409C225.635 109.866 239.519 109.752 241.651 109.238L243.291 108.782L240.995 108.097C239.628 107.698 238.371 106.899 238.043 106.215C237.661 105.473 237.169 98.856 236.786 89.7859C236.185 75.753 236.075 74.4409 234.927 72.5585C233.397 70.0485 230.609 67.7667 227.657 66.6829C224.323 65.4279 218.146 65.599 215.249 66.9681Z" fill="white"/>
<path d="M302.764 66.6829C297.407 68.3942 293.307 72.4444 293.307 76.0382C293.307 77.8066 294.674 80.3736 296.369 81.7426C298.664 83.6251 302.655 83.3969 304.896 81.2863L306.645 79.632L304.896 77.5784C302.491 74.7262 302.491 72.0451 304.841 69.7633C306.317 68.3372 306.973 68.109 309.706 68.109C313.806 68.109 315.446 69.364 316.484 73.4141C317.632 77.6925 317.96 82.6554 317.195 83.7392C316.758 84.3667 314.571 84.9371 310.417 85.5076C303.147 86.5914 298.883 87.9605 295.221 90.6416C289.153 94.977 288.114 101.195 292.542 106.329C294.947 109.124 298.227 110.322 304.24 110.721C308.777 111.006 308.996 110.949 312.603 108.953L316.375 106.842L317.632 108.325C318.89 109.694 319.218 109.752 324.848 109.694C328.073 109.637 331.353 109.466 332.118 109.238C333.43 108.839 333.375 108.782 331.298 108.154C330.096 107.755 328.784 107.242 328.346 106.956C327.253 106.215 326.761 101.708 326.652 91.7825C326.597 87.0478 326.378 80.944 326.16 78.0918L325.722 73.0148L322.88 70.2767C321.021 68.4513 319.108 67.2533 317.25 66.6829C313.806 65.6561 305.935 65.599 302.764 66.6829ZM317.25 94.8629L317.086 101.708L315.173 103.762C312.986 106.158 309.761 108.04 307.902 108.04C306.263 108.04 303.912 106.158 302.873 104.047C301.234 100.738 302.217 95.2052 304.951 92.1818C307.137 89.7289 310.964 88.3028 315.61 88.1316L317.468 88.0746L317.25 94.8629Z" fill="white"/>
<path d="M423.569 66.6258C417.72 68.6224 413.949 72.1592 411.161 78.377C409.576 81.8567 409.466 82.4842 409.466 88.645C409.466 94.2354 409.685 95.6045 410.669 97.9433C412.418 101.822 414.714 104.675 418.048 107.07C424.444 111.577 431.878 112.033 439.093 108.325C443.521 106.044 446.145 103.248 448.441 98.3426C449.807 95.4333 449.917 94.6917 449.917 87.7894C449.917 80.6588 449.862 80.2595 448.332 77.3502C446.254 73.4712 442.209 69.5351 438.274 67.6526C434.502 65.8843 427.286 65.3709 423.569 66.6258ZM432.698 68.5654C437.344 72.1592 440.351 83.2828 439.64 94.6347C439.312 100.91 438.328 103.876 435.65 106.728C433.846 108.782 433.081 109.181 431.386 109.181C428.762 109.181 426.685 108.04 424.826 105.473C421.164 100.453 419.306 92.2388 419.688 82.8265C419.961 77.3502 420.18 76.2093 421.711 72.9578C423.023 70.1626 424.007 68.9647 425.482 68.109C427.833 66.797 430.566 66.9681 432.698 68.5654Z" fill="white"/>
<path d="M364.369 122.016C363.987 122.529 363.823 123.043 363.987 123.271C364.424 123.67 366.009 122.415 366.009 121.674C366.009 120.875 365.135 121.046 364.369 122.016Z" fill="white"/>
<path d="M131.833 126.351C131.286 129.318 131.45 138.73 132.106 139.129C133.036 139.757 135.441 138.901 134.949 138.103C134.73 137.703 134.402 134.623 134.238 131.143C134.02 125.952 133.801 124.868 133.09 124.697C132.489 124.583 132.106 125.096 131.833 126.351Z" fill="white"/>
<path d="M137.463 126.066C139.541 127.892 139.759 130.402 137.955 132.398C136.48 134.052 137.627 134.167 140.142 132.569C143.039 130.744 142.328 126.922 138.885 125.382C136.097 124.184 135.605 124.412 137.463 126.066Z" fill="white"/>
<path d="M196.281 131.885C196.335 137.817 196.499 139.129 197.1 139.129C197.592 139.129 197.811 138.73 197.702 138.274C197.155 136.391 196.991 128.006 197.483 128.006C197.811 128.006 199.724 130.459 201.747 133.425C203.824 136.391 205.683 138.844 205.956 138.844C206.175 138.844 206.393 137.361 206.393 135.536C206.393 133.767 206.557 130.573 206.776 128.405C207.104 124.754 207.049 124.583 205.901 124.583C204.863 124.583 204.808 124.754 205.3 125.724C205.628 126.351 205.847 128.633 205.737 130.744L205.573 134.566L202.84 130.858C196.554 122.415 196.281 122.472 196.281 131.885Z" fill="white"/>
<path d="M233.506 126.351C230.937 132.284 228.422 138.844 228.641 139.072C229.188 139.643 230.445 138.673 230.445 137.646C230.445 137.076 231.046 136.163 231.811 135.65C233.069 134.794 233.123 134.623 232.303 134.052C231.483 133.425 231.483 133.197 232.303 131.143C232.85 129.831 233.397 129.147 233.67 129.489C234.271 130.116 237.004 137.247 237.004 138.16C237.004 138.844 239.574 139.757 240.12 139.243C240.339 138.958 235.146 125.382 234.49 124.64C234.381 124.526 233.943 125.325 233.506 126.351Z" fill="white"/>
<path d="M262.696 131.999V139.415L265.866 139.072C269.802 138.616 271.989 137.361 273.246 134.851C275.76 129.774 271.715 124.583 265.156 124.583H262.696V131.999ZM269.474 127.093C271.223 128.804 271.442 129.318 271.442 131.942C271.442 134.509 271.223 135.193 269.857 136.619C268.982 137.532 267.725 138.274 267.124 138.274C266.03 138.274 265.976 137.989 265.976 132.113C265.976 124.241 266.249 123.841 269.474 127.093Z" fill="white"/>
<path d="M296.696 131.828L296.86 139.129H301.015C303.693 139.129 305.497 138.844 306.044 138.331C307.356 137.247 306.59 136.334 305.169 137.304C304.513 137.76 303.037 138.274 301.944 138.502L299.867 138.901V132.056C299.867 127.15 300.031 125.154 300.578 124.982C300.906 124.811 300.195 124.64 298.883 124.64L296.532 124.583L296.696 131.828Z" fill="white"/>
<path d="M304.185 125.61C304.896 127.036 306.263 128.177 306.59 127.606C307.137 126.637 305.88 124.583 304.787 124.583C303.857 124.583 303.748 124.754 304.185 125.61Z" fill="white"/>
<path d="M329.385 130.915C329.385 137.418 329.877 139.586 331.298 139.072C331.9 138.787 332.118 137.247 332.227 132.113L332.391 125.439L334.031 125.553C335.781 125.724 337.147 127.15 336.928 128.519C336.819 129.033 335.999 129.945 335.015 130.63L333.266 131.828L334.578 132.455C335.453 132.912 336.109 133.995 336.71 136.163C337.53 139.129 338.787 140.613 339.498 139.415C339.935 138.73 339.279 136.163 338.131 133.71C337.147 131.714 337.147 131.657 338.459 130.116C339.552 128.804 339.662 128.291 339.17 127.378C338.35 125.724 335.398 124.583 332.118 124.583H329.385V130.915Z" fill="white"/>
<path d="M362.839 131.828L363.003 139.129L364.533 139.301L366.009 139.472V132.056V124.583H364.369H362.675L362.839 131.828Z" fill="white"/>
<path d="M393.887 125.724C393.504 126.408 392.63 128.804 391.919 131.029C391.209 133.197 390.115 135.878 389.569 136.905C388.967 137.989 388.639 138.958 388.858 139.072C389.569 139.529 390.443 138.673 390.881 137.133C391.919 133.425 393.504 129.147 393.942 129.147C394.16 129.147 394.98 131.2 395.8 133.71C397.276 138.331 398.533 139.871 400.283 139.186C400.939 138.901 400.993 138.673 400.501 138.046C400.173 137.646 398.916 134.851 397.768 131.828C394.762 124.184 394.707 124.07 393.887 125.724Z" fill="white"/>
<path d="M165.396 129.831C164.412 132.455 163.155 135.536 162.608 136.677C161.57 138.73 161.843 139.7 163.319 139.129C163.702 138.958 164.084 138.103 164.139 137.247C164.194 136.334 164.795 134.167 165.451 132.341C166.435 129.546 166.708 129.147 167.364 129.831C167.747 130.23 168.239 131.371 168.457 132.398C168.731 133.824 168.621 134.224 167.801 134.395C166.927 134.623 166.982 134.737 168.184 135.307C169.004 135.65 169.769 136.562 169.988 137.361C170.316 138.844 172.393 139.871 173.541 139.186C173.869 138.958 173.322 137.19 172.229 134.68C171.245 132.455 169.933 129.375 169.277 127.835C168.676 126.351 167.965 125.154 167.637 125.154C167.364 125.154 166.326 127.264 165.396 129.831Z" fill="white"/>
<path d="M87.2829 129.603C87.0096 130.173 85.7523 131.143 84.5498 131.714C81.9259 132.912 81.7073 133.539 83.8391 134.052C86.463 134.623 86.6816 134.794 86.6816 135.992C86.6816 137.076 87.0096 137.133 94.7717 137.133C102.206 137.133 102.971 137.019 103.9 135.992C104.447 135.364 105.704 134.566 106.688 134.167C108.601 133.482 109.148 132.569 107.727 132.569C107.29 132.569 105.978 131.657 104.775 130.573L102.698 128.576H95.2637C88.5948 128.576 87.7749 128.69 87.2829 129.603ZM103.627 131.485C103.627 131.771 103.244 131.828 102.807 131.657C102.37 131.428 101.987 130.915 101.987 130.459C101.987 129.717 102.151 129.717 102.807 130.288C103.244 130.687 103.627 131.2 103.627 131.485ZM90.5627 131.029C90.508 131.714 89.7427 131.543 89.5241 130.801C89.3601 130.459 89.5787 130.23 89.9614 130.345C90.2894 130.516 90.5627 130.801 90.5627 131.029ZM95.1544 130.915C95.8103 131.999 94.881 132.227 93.9518 131.257C93.0772 130.345 93.0772 130.288 93.8971 130.288C94.3891 130.288 94.9904 130.573 95.1544 130.915ZM99.4727 130.801C99.6367 131.086 99.4727 131.428 99.0354 131.6C98.2155 131.942 97.6142 131.543 97.6142 130.744C97.6142 130.116 99.0901 130.173 99.4727 130.801ZM88.2122 132.683C87.9389 133.596 85.5884 134.052 85.5884 133.254C85.5884 132.626 86.5176 132.113 87.6655 132.056C88.1028 131.999 88.3215 132.341 88.2122 132.683ZM90.9453 134.965C90.7813 135.364 90.2347 135.821 89.6334 135.935C88.7588 136.106 88.7041 135.992 89.3601 135.193C90.2347 134.11 91.2186 133.995 90.9453 134.965ZM94.881 135.422C94.2251 136.734 93.2412 136.962 93.2412 135.821C93.2412 134.851 93.7878 134.281 94.7171 134.281C95.3184 134.281 95.3184 134.566 94.881 135.422ZM99.2541 134.737C99.2541 135.479 98.5981 135.992 98.0515 135.65C97.5049 135.307 97.9968 134.281 98.7621 134.281C99.0354 134.281 99.2541 134.509 99.2541 134.737ZM103.408 135.136C101.987 136.22 101.113 136.22 101.987 135.136C102.37 134.68 103.08 134.281 103.572 134.281C104.283 134.338 104.283 134.452 103.408 135.136Z" fill="white"/>
<path d="M427.669 130.516C426.248 131.657 424.826 132.569 424.553 132.569C424.225 132.569 423.952 132.797 423.952 133.14C423.952 133.425 424.389 133.71 424.881 133.71C425.373 133.71 426.521 134.395 427.396 135.25C428.926 136.791 429.09 136.848 436.798 137.019C444.177 137.247 444.669 137.19 445.216 136.106C445.544 135.479 446.692 134.623 447.73 134.281C448.769 133.938 449.643 133.368 449.643 133.083C449.643 132.797 448.659 132.056 447.511 131.428C446.309 130.858 445.27 130.002 445.161 129.603C444.997 129.033 442.92 128.804 437.563 128.69L430.238 128.519L427.669 130.516ZM443.084 130.573C443.084 131.029 442.701 131.428 442.209 131.428C441.444 131.428 441.444 131.257 441.991 130.573C442.373 130.116 442.756 129.717 442.865 129.717C442.974 129.717 443.084 130.116 443.084 130.573ZM430.238 130.858C430.074 131.143 429.691 131.428 429.363 131.428C429.09 131.428 428.871 131.143 428.871 130.858C428.871 130.516 429.254 130.288 429.746 130.288C430.183 130.288 430.402 130.516 430.238 130.858ZM434.338 131.143C433.955 131.6 433.463 131.828 433.19 131.657C432.479 131.2 433.135 130.288 434.174 130.288C434.884 130.288 434.884 130.459 434.338 131.143ZM438.437 130.858C438.273 131.143 437.891 131.428 437.563 131.428C437.29 131.428 437.071 131.143 437.071 130.858C437.071 130.516 437.454 130.288 437.945 130.288C438.383 130.288 438.601 130.516 438.437 130.858ZM446.637 132.855C446.637 133.14 446.09 133.482 445.434 133.596C444.56 133.71 444.177 133.482 444.177 132.855C444.177 132.227 444.56 131.999 445.434 132.113C446.09 132.227 446.637 132.512 446.637 132.855ZM434.884 135.422C434.884 136.22 434.119 136.106 433.354 135.307C432.315 134.224 432.589 133.596 433.791 134.281C434.392 134.623 434.884 135.136 434.884 135.422ZM430.566 135.193C431.222 135.992 431.167 136.106 430.293 135.935C429.691 135.821 429.145 135.364 428.981 134.965C428.707 133.995 429.691 134.109 430.566 135.193ZM438.82 135.536C438.164 136.22 436.907 135.593 437.344 134.851C437.508 134.566 438.055 134.509 438.492 134.68C439.039 134.908 439.148 135.193 438.82 135.536Z" fill="white"/>
<path d="M301.726 130.573C300.742 131.314 300.742 131.428 301.616 132.341C302.655 133.425 303.693 132.969 303.693 131.428C303.693 129.945 302.928 129.603 301.726 130.573Z" fill="white"/>
</svg>
