<svg width="24" height="24" viewBox="0 0 24 24" fill="none" xmlns="http://www.w3.org/2000/svg">
<path d="M15.2283 22.626H9.5561C8.88258 22.626 8.29323 22.5839 7.75652 22.5102C7.32505 22.4471 7.01984 22.0472 7.08298 21.6157C7.14613 21.1842 7.53555 20.8685 7.97754 20.9422C8.44058 21.0053 8.95624 21.0369 9.54556 21.0369H15.2179C19.5221 21.0369 21.0479 19.511 21.0479 15.2068V10.4816C21.0479 10.0501 21.4057 9.69233 21.8372 9.69233C22.2687 9.69233 22.6265 10.0501 22.6265 10.4816V15.2068C22.637 20.4055 20.4165 22.626 15.2283 22.626Z" fill="#2B2D30"/>
<path d="M2.93512 15.8066C2.50365 15.8066 2.14584 15.4488 2.14584 15.0173V10.4921C2.14584 10.0607 2.50365 9.70286 2.93512 9.70286C3.36659 9.70286 3.7244 10.0607 3.7244 10.4921V15.0173C3.7244 15.4488 3.36659 15.8066 2.93512 15.8066Z" fill="#2B2D30"/>
<path d="M12.3972 12.1023C11.2396 12.1023 10.1872 11.6497 9.44004 10.8184C8.69286 9.987 8.34558 8.90304 8.46134 7.74544L9.16648 0.715665C9.20857 0.315764 9.54533 0 9.95575 0H14.8703C15.2807 0 15.6175 0.30524 15.6596 0.715665L16.3647 7.74544C16.4804 8.90304 16.1331 9.987 15.386 10.8184C14.6072 11.6497 13.5548 12.1023 12.3972 12.1023ZM10.6503 1.57856L10.0189 7.90331C9.94523 8.6084 10.1557 9.27139 10.5977 9.75548C11.4922 10.7447 13.2812 10.7447 14.1757 9.75548C14.6177 9.26086 14.8282 8.59788 14.7545 7.90331L14.1231 1.57856H10.6503Z" fill="#2B2D30"/>
<path d="M19.0263 12.1023C16.89 12.1023 14.9852 10.3764 14.7642 8.25055L14.0276 0.873426C14.0065 0.652428 14.0802 0.431472 14.2275 0.263093C14.3748 0.0947134 14.5853 0 14.8168 0H18.0266C21.1205 0 22.5623 1.29442 22.9938 4.47257L23.2884 7.3982C23.4147 8.63999 23.0358 9.81872 22.2255 10.7132C21.4152 11.6078 20.2786 12.1023 19.0263 12.1023ZM15.6903 1.57856L16.3428 8.09267C16.4796 9.40809 17.7109 10.5237 19.0263 10.5237C19.8261 10.5237 20.5417 10.2186 21.0574 9.66087C21.5625 9.10306 21.794 8.35588 21.7204 7.55607L21.4257 4.66205C21.0995 2.2837 20.3313 1.57856 18.0266 1.57856H15.6903Z" fill="#2B2D30"/>
<path d="M5.70413 12.1023C4.45181 12.1023 3.31527 11.6078 2.50494 10.7132C1.69462 9.81872 1.31575 8.63999 1.44204 7.3982L1.73673 4.50418C2.17873 1.29445 3.62045 0 6.71442 0H9.92414C10.1451 0 10.3556 0.0947134 10.5135 0.263093C10.6608 0.431472 10.7345 0.652428 10.7134 0.873426L9.97675 8.25055C9.74523 10.3764 7.82992 12.1023 5.70413 12.1023ZM6.70389 1.57856C4.3992 1.57856 3.63098 2.27307 3.29422 4.683L3.01006 7.54554C2.92587 8.34534 3.16792 9.09252 3.67306 9.65024C4.1782 10.208 4.90433 10.5132 5.70413 10.5132C7.03011 10.5132 8.26138 9.39777 8.38766 8.08226L9.04019 1.56802H6.70389V1.57856Z" fill="#2B2D30"/>
<path d="M4.99876 23.6783C3.52544 23.6783 2.14685 23.0363 1.19971 21.9102C1.18919 21.8997 1.14708 21.8577 1.11551 21.8051C0.957657 21.6157 0.820838 21.4263 0.715604 21.2263C0.252562 20.4791 0 19.5951 0 18.669C0 17.1326 0.684071 15.7119 1.87325 14.7648C2.08372 14.5964 2.31522 14.4385 2.56778 14.3017C3.29392 13.8913 4.14634 13.6598 4.99876 13.6598C6.21951 13.6598 7.34558 14.0807 8.25062 14.87C8.36638 14.9542 8.52418 15.112 8.66099 15.2594C9.51341 16.196 9.98699 17.3957 9.98699 18.648C9.98699 19.5636 9.73442 20.4581 9.26085 21.2263C9.02933 21.6262 8.74521 21.9735 8.4295 22.2471C8.36635 22.3102 8.30321 22.3735 8.22955 22.4261C7.39817 23.2364 6.23003 23.6783 4.99876 23.6783ZM2.34677 20.8264C2.37834 20.858 2.43095 20.9105 2.47305 20.9842C3.05185 21.6682 3.99901 22.1103 4.99876 22.1103C5.83013 22.1103 6.62993 21.8051 7.24031 21.2579C7.27189 21.2158 7.31397 21.1737 7.36659 21.1421C7.57707 20.9632 7.756 20.7316 7.92438 20.458C8.25062 19.9213 8.4295 19.3215 8.4295 18.6901C8.4295 17.8377 8.10326 17.0063 7.51394 16.3644C7.44027 16.2802 7.36656 16.196 7.27185 16.1328C6.13529 15.1541 4.57779 15.0069 3.33599 15.712C3.16761 15.8067 3.02029 15.9013 2.88348 16.0171C2.06264 16.6695 1.58909 17.6377 1.58909 18.6901C1.58909 19.311 1.75744 19.9215 2.08367 20.4477C2.16786 20.595 2.25205 20.7106 2.34677 20.8159C2.33624 20.8159 2.34677 20.8159 2.34677 20.8264Z" fill="#2B2D30"/>
<path d="M6.57706 19.4478H3.43048C2.99901 19.4478 2.6412 19.09 2.6412 18.6585C2.6412 18.2271 2.99901 17.8692 3.43048 17.8692H6.57706C7.00853 17.8692 7.36634 18.2271 7.36634 18.6585C7.36634 19.09 7.00853 19.4478 6.57706 19.4478Z" fill="#2B2D30"/>
<path d="M4.99875 21.0579C4.56728 21.0579 4.20947 20.7001 4.20947 20.2687V17.1221C4.20947 16.6906 4.56728 16.3328 4.99875 16.3328C5.43022 16.3328 5.78803 16.6906 5.78803 17.1221V20.2687C5.78803 20.7107 5.43022 21.0579 4.99875 21.0579Z" fill="#2B2D30"/>
</svg>
